<?xml version="1.0" standalone="no"?>
<!DOCTYPE svg PUBLIC "-//W3C//DTD SVG 20010904//EN" "http://www.w3.org/TR/2001/REC-SVG-20010904/DTD/svg10.dtd">
<!-- Created using Krita: https://krita.org -->
<svg xmlns="http://www.w3.org/2000/svg" 
    xmlns:xlink="http://www.w3.org/1999/xlink"
    xmlns:krita="http://krita.org/namespaces/svg/krita"
    xmlns:sodipodi="http://sodipodi.sourceforge.net/DTD/sodipodi-0.dtd"
    width="11.52pt"
    height="11.52pt"
    viewBox="0 0 11.52 11.52">
<defs/>
<path id="shape0" transform="translate(0.607499981847971, 0.468583393805478)" fill="#ffffff" fill-rule="evenodd" stroke="none" stroke-width="0.72" stroke-linecap="square" stroke-linejoin="bevel" d="M0.1125 0.138917L0 1.96142L0.5625 3.51392L0.6525 5.29142L4.14 7.56392C4.84598 9.34542 5.98631 11.5595 8.0325 8.57642C9.21162 8.78161 10.4918 9.75517 10.4175 8.17142C9.52335 5.7564 10.443 3.39441 9.225 3.10892C8.61486 3.1537 7.68247 3.08637 6.9525 2.95142L5.1525 4.57142C5.23524 3.93631 7.61954 4.26837 5.5125 2.41142C3.16719 1.59605 1.24523 -0.565314 0.1125 0.138917Z" sodipodi:nodetypes="cccccccccccc"/><path id="shape1" transform="translate(0.787500042295411, 0.697500045655153)" fill="none" stroke="#000000" stroke-width="0.72" stroke-linecap="square" stroke-linejoin="miter" stroke-miterlimit="2" d="M0 0C1.52374 1.3315 2.49463 2.1955 4.9725 2.6325" sodipodi:nodetypes="cc"/><path id="shape2" transform="translate(5.50432787783538, 3.54375000335713)" fill="none" stroke="#000000" stroke-width="0.72" stroke-linecap="square" stroke-linejoin="miter" stroke-miterlimit="2" d="M0.466344 0C-0.173123 0.852056 -0.151932 3.7471 0.511344 4.9275" sodipodi:nodetypes="cc"/><path id="shape01" transform="translate(0.539999967771593, 2.09250004699975)" fill="none" stroke="#000000" stroke-width="0.48" stroke-linecap="square" stroke-linejoin="miter" stroke-miterlimit="2" d="M0 0C1.52374 1.3315 1.97713 2.443 4.455 2.88" sodipodi:nodetypes="cc"/><path id="shape02" transform="translate(1.11930008997095, 3.8418000617711)" fill="none" stroke="#000000" stroke-width="0.48" stroke-linecap="square" stroke-linejoin="miter" stroke-miterlimit="2" d="M0 0C1.52374 1.3315 1.45963 2.1955 3.9375 2.6325" sodipodi:nodetypes="cc"/><path id="shape03" transform="translate(1.29374997446928, 5.65875000805448)" fill="none" stroke="#000000" stroke-width="0.48" stroke-linecap="square" stroke-linejoin="miter" stroke-miterlimit="2" d="M0 0C1.52374 1.3315 1.54963 1.9255 4.0275 2.3625" sodipodi:nodetypes="cc"/><path id="shape04" transform="translate(5.09814528907033, 8.9999999785144)" fill="none" stroke="#000000" stroke-width="0.48" stroke-linecap="square" stroke-linejoin="miter" stroke-miterlimit="2" d="M0.0400597 0.0224997C-0.426664 1.70807 3.33469 2.07962 3.54185 0" sodipodi:nodetypes="cc"/><path id="shape05" transform="translate(7.81081398068777, 5.7166599186349)" fill="none" stroke="#000000" stroke-width="0.48" stroke-linecap="square" stroke-linejoin="miter" stroke-miterlimit="2" d="M0.428114 0C-0.994232 1.85061 1.56781 2.48398 1.75169 3.23668" sodipodi:nodetypes="cc"/><path id="shape3" transform="translate(6.41249980839516, 3.21248111129326)" fill="none" stroke="#000000" stroke-width="0.48" stroke-linecap="square" stroke-linejoin="miter" stroke-miterlimit="2" d="M0 1.53502C0.864482 0.862474 0.818621 -0.581907 3.2625 0.252519" sodipodi:nodetypes="cc"/><path id="shape4" transform="translate(10.08, 3.88124999969893)" fill="none" stroke="#000000" stroke-width="0.48" stroke-linecap="square" stroke-linejoin="bevel" d="M0 5.63625C1.99646 6.19807 0.0803728 2.61908 0.3825 1.125C0.9485 0.538794 0.517092 0.342877 0.46125 0" sodipodi:nodetypes="ccc"/><path id="shape5" transform="translate(0.562499983192565, 0.719999978486484)" fill="none" stroke="none" stroke-width="0.72" stroke-linecap="square" stroke-linejoin="bevel" d="M0.1575 0L0 1.4175L0.8775 3.6L0.7875 5.04L4.7475 8.2575L8.0775 8.28L10.2375 7.4925L9.2475 2.6775L5.1975 4.2075L4.8375 2.61L0.1575 0" sodipodi:nodetypes="ccccccccccc"/>
</svg>
